<?xml version="1.0" encoding="UTF-8"?><svg id="Expanded" xmlns="http://www.w3.org/2000/svg" viewBox="0 0 68 55"><rect width="68" height="55" style="fill:none;"/><path d="M34,29.27c-.81,0-1.47.66-1.47,1.47s.66,1.47,1.47,1.47,1.47-.66,1.47-1.47-.66-1.47-1.47-1.47ZM34,31.72c-.54,0-.97-.44-.97-.97s.44-.97.97-.97.97.44.97.97-.44.97-.97.97Z" style="fill:#567;"/><path d="M66.86,28.29v-.26s-.12-2.07-.61-4.05c-.6-2.44-1.51-4-1.55-4.07l-.07-.12h-3.5c-.89-.66-1.99-1.24-3.32-1.72-3.12-3.38-7.35-6.39-23.77-6.39s-20.62,2.99-23.74,6.35c-1.37.49-2.51,1.08-3.42,1.76h-3.5l-.07.12c-.04.07-.95,1.63-1.55,4.07-.49,1.98-.6,4.03-.6,4.05v.26s1.84,0,1.84,0c-.07,1.47.04,3.08.42,4.85.51,2.41,2.34,8.14,8.27,9.3l.21.05c4.9,1.09,9.53,1.11,13.39.06,1.07-.3,2.31-.66,3.47-1.24.52-.26,1.01-.58,1.48-.89.49-.32.95-.63,1.44-.87.61-.29,1.29-.57,2.32-.57s1.71.28,2.32.57c.49.23.96.54,1.44.87.47.31.95.63,1.48.89,1.16.57,2.4.94,3.47,1.24,1.89.52,3.97.77,6.17.77s4.72-.28,7.22-.83l.21-.05c5.93-1.17,7.76-6.9,8.27-9.3.37-1.77.49-3.38.42-4.85h1.85ZM34.03,12.18c15.08,0,19.72,2.54,22.74,5.54-3.95-1.21-9.65-1.77-17.5-1.77h-10.55c-7.79,0-13.46.56-17.41,1.75,3.02-2.99,7.68-5.52,22.72-5.52ZM3.02,27.79h-1.35c.05-.61.19-2.17.56-3.69.49-1.98,1.21-3.4,1.43-3.81h2.59c-.16.14-.31.28-.45.42-1.34,1.4-2.52,3.82-2.78,7.08ZM63.61,32.93c-.47,2.21-2.14,7.48-7.49,8.53l-.24.05c-4.74,1.06-9.21,1.08-12.9.07-1.03-.28-2.21-.63-3.29-1.17-.47-.23-.9-.52-1.37-.83-.5-.33-1.01-.67-1.57-.94-.49-.23-1.41-.67-2.75-.67s-2.26.44-2.75.67c-.56.26-1.07.61-1.57.94-.46.31-.9.6-1.37.83-1.08.53-2.27.88-3.29,1.17-3.7,1.01-8.16.98-12.9-.07l-.24-.05c-5.35-1.05-7.02-6.32-7.49-8.53-1.19-5.61.32-9.63,2.14-11.53,2.95-3.08,9.79-4.46,22.2-4.46h10.55c12.4,0,19.25,1.37,22.2,4.46,1.81,1.9,3.33,5.92,2.14,11.53ZM62.2,20.71c-.14-.15-.3-.28-.45-.42h2.59c.22.41.94,1.83,1.43,3.81.37,1.52.52,3.08.56,3.69h-1.35c-.26-3.25-1.45-5.68-2.78-7.08Z" style="fill:#567;"/><path d="M60.39,22.44c-1.14-1.19-3.02-2.43-5.65-3.15-1.89-.51-3.97-.74-5.66-.74-2.12,0-4.31.03-6.31.83-1.75.7-2.91,1.83-3.65,3.59-.57,1.44-1.4,4.41-.99,9.61.05.48.29,2.09,1.25,3.79.01.03.03.05.04.08.09.15.18.31.28.46.03.04.06.09.09.13.1.14.2.29.31.43.04.05.08.1.12.15.11.14.22.27.34.41.05.05.1.11.15.16.12.13.25.26.38.39.06.05.12.1.17.15.14.12.28.25.44.37.06.05.13.09.19.14.16.12.32.24.5.35.06.04.12.07.18.1.43.26.9.51,1.43.72,1.63.65,4.2.86,5.62.86.04,0,.08,0,.12,0,.47,0,.91-.01,1.35-.03.02,0,.05,0,.07,0,.38-.02.74-.05,1.1-.08.11-.01.23-.02.34-.03.31-.03.6-.09.89-.14.14-.02.3-.04.44-.07.27-.05.53-.13.79-.2.15-.04.3-.07.45-.11.25-.08.48-.17.72-.27.15-.06.31-.1.45-.17.21-.09.41-.21.61-.31.17-.09.34-.16.51-.26.11-.06.21-.14.32-.21.61-.39,1.21-.85,1.8-1.4.83-.79,1.55-1.99,2.08-3.57.11-.34.22-.7.31-1.08.06-.23.12-.47.17-.72.12-.57.2-1.12.26-1.65.02-.19.03-.37.05-.56.01-.18.04-.36.05-.54,0,0-.01,0-.02,0,.18-3.59-.91-6.19-2.1-7.43ZM62.23,29.93c-3.07.66-12.67,2.57-23.82,2.89-.02-.1-.03-.19-.04-.26-.3-3.83.03-7.11.97-9.49.7-1.68,1.82-2.77,3.51-3.45,2.02-.81,4.25-.81,6.21-.81,1.85,0,3.89.27,5.59.73,3.04.83,4.78,2.28,5.54,3.08,1.16,1.22,2.22,3.77,2.03,7.31Z" style="fill:#567;"/><path d="M25.23,19.39c-2-.8-4.19-.83-6.31-.83-1.69,0-3.77.22-5.66.74-2.63.71-4.51,1.95-5.65,3.15-1.21,1.26-2.3,3.91-2.09,7.58,0,0-.01,0-.02,0,0,.15.03.31.04.47.01.16.02.31.04.47.06.54.14,1.09.26,1.66.51,2.48,1.44,4.3,2.56,5.36.66.62,1.32,1.12,2.01,1.54.04.02.07.05.11.07.21.13.43.23.65.34.16.08.31.17.47.24.18.08.36.14.54.2.21.08.42.17.63.23.16.05.34.09.51.13.24.06.48.13.73.18.15.03.32.05.47.07.28.05.56.1.86.13.12.01.24.02.36.03.35.03.71.06,1.08.08.02,0,.05,0,.08,0,.43.02.88.03,1.34.03.04,0,.08,0,.12,0,1.43,0,4-.22,5.62-.86.53-.21,1.01-.46,1.45-.73.06-.03.12-.07.17-.1.17-.11.33-.23.48-.34.07-.05.14-.1.21-.15.14-.11.28-.23.41-.35.07-.06.14-.12.21-.18.12-.12.24-.24.35-.36.06-.07.13-.13.18-.2.11-.12.21-.25.31-.38.05-.07.1-.13.15-.2.1-.13.19-.26.28-.39.04-.06.08-.12.12-.18.09-.14.17-.28.25-.42.03-.05.06-.1.09-.15.08-.15.16-.3.23-.44.02-.03.03-.07.05-.1.08-.17.15-.33.21-.49,0,0,0-.01,0-.02.5-1.23.65-2.27.69-2.63.41-5.2-.42-8.16-.99-9.61-.74-1.76-1.9-2.89-3.65-3.59ZM29.62,32.55c0,.05-.01.12-.03.2-13.36-.42-18.87-1.58-23.82-2.67-.23-3.63.84-6.23,2.02-7.47.76-.8,2.49-2.25,5.54-3.08,1.71-.46,3.74-.73,5.59-.73,1.97,0,4.2,0,6.21.81,1.69.68,2.81,1.78,3.51,3.45.94,2.38,1.28,5.66.97,9.49Z" style="fill:#567;"/></svg>