<svg width="60" height="60" viewBox="0 0 60 60" fill="none" xmlns="http://www.w3.org/2000/svg">
<path d="M20.0685 48.0726C20.0685 48.3145 19.7903 48.5081 19.4395 48.5081C19.0403 48.5444 18.7621 48.3508 18.7621 48.0726C18.7621 47.8307 19.0403 47.6371 19.3911 47.6371C19.754 47.6008 20.0685 47.7944 20.0685 48.0726ZM16.3065 47.5283C16.2218 47.7702 16.4637 48.0484 16.8266 48.121C17.1411 48.242 17.504 48.121 17.5766 47.8791C17.6492 47.6371 17.4194 47.3589 17.0565 47.25C16.7419 47.1654 16.3911 47.2863 16.3065 47.5283ZM21.6532 47.3226C21.3024 47.4073 21.0605 47.6371 21.0968 47.9154C21.1331 48.1573 21.4476 48.3145 21.8105 48.2299C22.1613 48.1452 22.4032 47.9154 22.3669 47.6734C22.3306 47.4436 22.004 47.2863 21.6532 47.3226ZM29.6129 0.967773C12.8347 0.967773 0 13.7057 0 30.4839C0 43.8992 8.44355 55.3791 20.504 59.4194C22.0524 59.6976 22.5968 58.742 22.5968 57.9557C22.5968 57.2057 22.5605 53.0686 22.5605 50.5283C22.5605 50.5283 14.0927 52.3428 12.3145 46.9234C12.3145 46.9234 10.9355 43.4033 8.95161 42.496C8.95161 42.496 6.18145 40.5968 9.14516 40.6331C9.14516 40.6331 12.1573 40.875 13.8145 43.7541C16.4637 48.4234 20.9032 47.0807 22.6331 46.2823C22.9113 44.3468 23.6976 43.0041 24.5685 42.2057C17.8065 41.4557 10.9839 40.4758 10.9839 28.8387C10.9839 25.5121 11.9032 23.8428 13.8387 21.7137C13.5242 20.9275 12.496 17.6855 14.1532 13.5C16.6815 12.7137 22.5 16.7662 22.5 16.7662C24.9194 16.0887 27.5202 15.7379 30.0968 15.7379C32.6734 15.7379 35.2742 16.0887 37.6935 16.7662C37.6935 16.7662 43.5121 12.7016 46.0403 13.5C47.6976 17.6976 46.6694 20.9275 46.3548 21.7137C48.2903 23.8549 49.4758 25.5242 49.4758 28.8387C49.4758 40.5121 42.3508 41.4436 35.5887 42.2057C36.7016 43.1613 37.6452 44.9758 37.6452 47.8186C37.6452 51.8952 37.6089 56.9395 37.6089 57.9315C37.6089 58.7178 38.1653 59.6734 39.7016 59.3952C51.7984 55.3791 60 43.8992 60 30.4839C60 13.7057 46.3911 0.967773 29.6129 0.967773ZM11.7581 42.6895C11.6008 42.8105 11.6371 43.0887 11.8427 43.3186C12.0363 43.5121 12.3145 43.5968 12.4718 43.4395C12.629 43.3186 12.5927 43.0404 12.3871 42.8105C12.1935 42.617 11.9153 42.5323 11.7581 42.6895ZM10.4516 41.7097C10.3669 41.867 10.4879 42.0605 10.7298 42.1815C10.9234 42.3025 11.1653 42.2662 11.25 42.0968C11.3347 41.9395 11.2137 41.746 10.9718 41.625C10.7298 41.5525 10.5363 41.5887 10.4516 41.7097ZM14.371 46.0162C14.1774 46.1734 14.25 46.5363 14.5282 46.7662C14.8065 47.0444 15.1573 47.0807 15.3145 46.8871C15.4718 46.7299 15.3992 46.367 15.1573 46.1371C14.8911 45.8589 14.5282 45.8226 14.371 46.0162ZM12.9919 44.2379C12.7984 44.3589 12.7984 44.6734 12.9919 44.9516C13.1855 45.2299 13.5121 45.3508 13.6694 45.2299C13.8629 45.0726 13.8629 44.7581 13.6694 44.4799C13.5 44.2016 13.1855 44.0807 12.9919 44.2379Z" fill="white"/>
</svg>
