<svg width="60" height="61" viewBox="0 0 60 61" fill="none" xmlns="http://www.w3.org/2000/svg">
<path d="M8.74107 51.6439V52.1439H9.24107H18.1339H18.1473H18.6473V51.6439V23.0461V22.5461H18.1473H9.24107H8.74107V23.0461V51.6439ZM51.4687 52.1439H51.9687V51.6439V35.9673C51.9687 32.1037 51.5545 28.5697 49.9295 25.9961C48.2712 23.3699 45.4179 21.8372 40.7946 21.8372C37.0573 21.8372 34.3098 23.5314 32.75 25.4769V23.0461V22.5461H32.25H23.7188H23.2188V23.0461V51.6439V52.1439H23.7188H32.6116H33.1116V51.6439V37.4922C33.1116 35.6355 33.2929 33.9124 33.9834 32.6628C34.3221 32.0498 34.7816 31.5548 35.4073 31.209C36.0359 30.8616 36.8617 30.6488 37.9554 30.6488C39.0138 30.6488 39.766 30.8956 40.312 31.2772C40.859 31.6595 41.2417 32.2068 41.5083 32.8808C42.0528 34.2574 42.0759 36.0525 42.0759 37.7329V51.6439V52.1439H42.5759H51.4687ZM4.27232 0.780273H55.7143C57.7918 0.780273 59.5 2.49247 59.5 4.6007V55.8841C59.5 57.9923 57.7918 59.7045 55.7143 59.7045H4.27232C2.19679 59.7045 0.5 57.9944 0.5 55.8841V4.6007C0.5 2.49043 2.19679 0.780273 4.27232 0.780273ZM8.03125 13.9906C8.03125 17.1022 10.5584 19.6404 13.6875 19.6404C16.8157 19.6404 19.3437 17.1164 19.3437 13.9906C19.3437 10.8782 16.8023 8.34088 13.6875 8.34088C10.5584 8.34088 8.03125 10.879 8.03125 13.9906Z" fill="white" stroke="white"/>
</svg>
