<svg width="30" height="24" viewBox="0 0 30 24" fill="none" xmlns="http://www.w3.org/2000/svg">
<path d="M2.8125 0.75C1.25977 0.75 0 2.00977 0 3.5625C0 4.44727 0.416016 5.2793 1.125 5.8125L13.875 15.375C14.543 15.873 15.457 15.873 16.125 15.375L28.875 5.8125C29.584 5.2793 30 4.44727 30 3.5625C30 2.00977 28.7402 0.75 27.1875 0.75H2.8125ZM0 7.3125V19.5C0 21.5684 1.68164 23.25 3.75 23.25H26.25C28.3184 23.25 30 21.5684 30 19.5V7.3125L17.25 16.875C15.9141 17.877 14.0859 17.877 12.75 16.875L0 7.3125Z" fill="white"/>
</svg>
