<svg width="87" height="98" viewBox="0 0 87 98" fill="none" xmlns="http://www.w3.org/2000/svg">
<path d="M86.2 68.2V23.2L47.2 0.700008V18L62.5 26.8C63.1 27.1 63.1 28 62.5 28.3L44.3 38.8C43.8 39.1 43.1 39.1 42.6 38.8L24.4 28.2C23.8 27.9 23.8 27 24.4 26.7L39.7 17.9V0.600006L0.700012 23.1V68.2V68V68.2L15.7 59.6V41.9C15.7 41.3 16.4 40.8 17 41.2L35.2 51.7C35.7 52 36.1 52.6 36.1 53.2V74.2C36.1 74.8 35.4 75.3 34.8 74.9L19.5 66.1L4.50001 74.7L43.5 97.2L82.5 74.7L67.5 66.1L52.2 74.9C51.7 75.2 50.9 74.8 50.9 74.2V53.2C50.9 52.6 51.2 52 51.8 51.7L70 41.2C70.5 40.9 71.3 41.3 71.3 41.9V59.6L86.2 68.2Z" fill="#4C4C4C"/>
<path d="M43.4 97.3L82.4 74.8L67.4 66.2L52.1 75C51.6 75.3 50.8 74.9 50.8 74.3V53.3C50.8 52.7 51.1 52.1 51.7 51.8L69.9 41.3C70.4 41 71.2 41.4 71.2 42V59.7L86.2 68.3V23.2L43.4 47.9V97.3Z" fill="black"/>
<path d="M47.1 0.600006V17.9L62.4 26.7C63 27 63 27.9 62.4 28.2L44.2 38.7C43.7 39 43 39 42.5 38.7L24.4 28.2C23.8 27.9 23.8 27 24.4 26.7L39.7 17.9V0.600006L0.700012 23.1L43.5 47.8L86.3 23.1L47.1 0.600006Z" fill="#808080"/>
<path d="M34.6 74.9L19.3 66.1L4.30001 74.7L43.3 97.2V47.8L0.600006 23.2V68.3V68.1V68.3L15.6 59.7V42C15.6 41.4 16.3 40.9 16.9 41.3L35.1 51.8C35.6 52.1 36 52.7 36 53.3V74.3C35.9 74.8 35.2 75.2 34.6 74.9Z" fill="#4C4C4C"/>
</svg>
